<?xml version="1.0" encoding="utf-8"?>
<!-- Generator: Adobe Illustrator 19.0.1, SVG Export Plug-In . SVG Version: 6.00 Build 0)  -->
<svg version="1.1" xmlns="http://www.w3.org/2000/svg" xmlns:xlink="http://www.w3.org/1999/xlink" x="0px" y="0px"
	 viewBox="0 0 200 100" enable-background="new 0 0 200 100" xml:space="preserve">
<g id="MS">
	<g>
		<path fill="#000102" d="M74.1,58L88.5,23h21.6v1.4h-1.7c-1.6,0-2.8,0.3-3.8,0.8c-0.7,0.4-1.2,1-1.6,1.8c-0.3,0.6-0.4,2.3-0.4,4.9
			v34.9c0,2.7,0.1,4.4,0.4,5.1c0.3,0.7,0.9,1.3,1.8,1.8c0.9,0.5,2.1,0.8,3.6,0.8h1.7V76H82.4v-1.4h1.7c1.6,0,2.8-0.3,3.8-0.8
			c0.7-0.4,1.2-1,1.6-1.9c0.3-0.6,0.4-2.3,0.4-4.9V27.7L69.6,76h-0.9L48,28v37.3c0,2.6,0.1,4.2,0.2,4.8c0.3,1.3,1.1,2.4,2.2,3.2
			s2.9,1.2,5.3,1.2V76H37.6v-1.4h0.5c1.2,0,2.3-0.2,3.3-0.6c1-0.4,1.8-0.9,2.3-1.6c0.5-0.7,0.9-1.6,1.2-2.9c0.1-0.3,0.1-1.6,0.1-4
			V32c0-2.7-0.1-4.4-0.4-5c-0.3-0.7-0.9-1.3-1.8-1.8c-0.9-0.5-2.1-0.8-3.6-0.8h-1.7V23h21.6L74.1,58z"/>
		<path fill="#494949" d="M149.1,21.8l0.4,17.7h-1.6c-0.8-4.4-2.6-8-5.6-10.7c-3-2.7-6.2-4-9.6-4c-2.7,0-4.8,0.7-6.3,2.1
			c-1.5,1.4-2.3,3.1-2.3,4.9c0,1.2,0.3,2.2,0.8,3.1c0.8,1.2,2,2.4,3.6,3.6c1.2,0.9,4,2.4,8.5,4.6c6.2,3,10.4,5.9,12.5,8.6
			c2.1,2.7,3.2,5.8,3.2,9.3c0,4.4-1.7,8.2-5.2,11.4c-3.5,3.2-7.8,4.8-13.1,4.8c-1.7,0-3.2-0.2-4.7-0.5c-1.5-0.3-3.3-1-5.6-1.9
			c-1.3-0.5-2.3-0.8-3.1-0.8c-0.7,0-1.4,0.3-2.1,0.8c-0.8,0.5-1.4,1.3-1.8,2.4h-1.4v-20h1.4c1.1,5.6,3.4,9.9,6.6,12.9
			c3.3,3,6.8,4.4,10.6,4.4c2.9,0,5.2-0.8,7-2.4c1.7-1.6,2.6-3.4,2.6-5.5c0-1.3-0.3-2.5-1-3.6s-1.7-2.3-3-3.3
			c-1.4-1.1-3.8-2.4-7.2-4.1c-4.8-2.4-8.3-4.4-10.4-6.1c-2.1-1.7-3.7-3.5-4.9-5.6c-1.1-2.1-1.7-4.3-1.7-6.8c0-4.2,1.5-7.8,4.6-10.8
			c3.1-3,7-4.5,11.7-4.5c1.7,0,3.4,0.2,5,0.6c1.2,0.3,2.7,0.9,4.5,1.7c1.8,0.8,3,1.3,3.7,1.3c0.7,0,1.2-0.2,1.6-0.6
			c0.4-0.4,0.8-1.4,1.1-3H149.1z"/>
	</g>
</g>
<g id="Многоугольник_1_1_" opacity="0.2" enable-background="new    ">
	<g id="Многоугольник_1">
		<g>
			<polygon fill-rule="evenodd" clip-rule="evenodd" points="104.2,-0.2 45.2,19 45.2,81.1 104.2,100.2 140.7,50 			"/>
		</g>
	</g>
</g>
<g id="_x3C_Type_x3E_">
	<g>
	</g>
</g>
</svg>
